<svg xmlns="http://www.w3.org/2000/svg" width="32" height="24.566"><path fill="#fcad1d" d="M6.021 23.884a2.831 2.831 0 0 1-.815-1.655 1.66 1.66 0 0 0 1.5.226c.732-.33 1.013-1.67 1.013-1.67L9.936 8.627h-1.9l.479-2.565h1.913s.537-3.061 1.648-4.2A5.591 5.591 0 0 1 15.913 0a5.325 5.325 0 0 1 2.351.75L17.4 2.915a2.272 2.272 0 0 0-1.483-.506 2.307 2.307 0 0 0-1.922 1.631 9.333 9.333 0 0 0-.445 2.021h3.145l-.507 2.565h-3.122l-2.224 12.159s-.427 2.808-2.27 3.584a2.424 2.424 0 0 1-.943.2 2.287 2.287 0 0 1-1.608-.685Zm20.5-4.9a3.851 3.851 0 0 1-.441-2.588L28.875 1H32l-2.8 15.392s-.228 1.2.34 1.695a1.953 1.953 0 0 0 1.447.342 3.54 3.54 0 0 1-1.556 1.247 3.289 3.289 0 0 1-1.127.214 2.087 2.087 0 0 1-1.784-.91Zm-7.7.469 1.974-10.82L19.1 8.6l.448-2.445s2.676-.015 4.827 0l-2.435 13.29ZM0 19.449l1.974-10.82L.285 8.6l.449-2.441s2.676-.015 4.827 0l-2.436 13.29ZM21.049 2.613a2.006 2.006 0 1 1 2.006 2.005 2.006 2.006 0 0 1-2.006-2.005Zm-18.817 0a2.006 2.006 0 1 1 2.005 2.005 2.005 2.005 0 0 1-2.005-2.005Z" data-name="Union 4"/></svg>