<?xml version="1.0" standalone="no"?>
<!DOCTYPE svg PUBLIC "-//W3C//DTD SVG 20010904//EN"
 "http://www.w3.org/TR/2001/REC-SVG-20010904/DTD/svg10.dtd">
<svg version="1.0" xmlns="http://www.w3.org/2000/svg"
 width="1024.000000pt" height="1024.000000pt" viewBox="0 0 1024.000000 1024.000000"
 preserveAspectRatio="xMidYMid meet">
<metadata>
Created by potrace 1.14, written by Peter Selinger 2001-2017
</metadata>
<g transform="translate(0.000000,1024.000000) scale(0.100000,-0.100000)"
fill="#000000" stroke="none">
<path d="M4905 9028 c-49 -9 -103 -20 -118 -23 -93 -19 -417 -142 -437 -166
-3 -3 -25 -16 -50 -30 -183 -99 -428 -320 -547 -495 -38 -57 -99 -174 -138
-264 -20 -47 -42 -98 -49 -115 -25 -57 -118 -344 -131 -400 -2 -11 -16 -65
-30 -120 -32 -125 -30 -114 -50 -217 l-18 -88 -308 0 c-287 0 -309 -1 -310
-17 -1 -22 -5 -47 -25 -146 -8 -42 -17 -89 -20 -102 -2 -14 -6 -37 -9 -52 -2
-16 -7 -41 -11 -56 -3 -16 -7 -38 -9 -50 -1 -12 -12 -69 -23 -127 -11 -58 -23
-121 -26 -140 -10 -59 -17 -94 -22 -112 -5 -17 14 -18 301 -18 287 0 306 -1
301 -17 -2 -10 -10 -52 -17 -93 -7 -41 -13 -77 -14 -80 -1 -3 -5 -25 -9 -50
-5 -25 -10 -54 -13 -65 -2 -11 -6 -33 -8 -50 -3 -16 -7 -41 -10 -55 -3 -14
-12 -63 -20 -110 -8 -47 -17 -96 -20 -110 -3 -14 -8 -41 -11 -60 -4 -19 -8
-44 -11 -55 -2 -11 -14 -81 -28 -155 -13 -74 -31 -173 -40 -220 -9 -47 -18
-94 -19 -105 -2 -11 -7 -38 -11 -60 -11 -60 -14 -74 -26 -140 -15 -89 -17
-100 -19 -100 -1 0 -3 -12 -5 -26 -2 -15 -6 -44 -10 -65 -4 -22 -9 -48 -11
-59 -1 -11 -6 -33 -9 -50 -12 -63 -26 -141 -30 -165 -2 -14 -7 -36 -10 -50 -3
-14 -7 -34 -9 -45 -4 -29 -18 -107 -22 -130 -3 -11 -7 -36 -10 -55 -3 -19 -7
-42 -9 -50 -3 -8 -7 -33 -11 -55 -3 -22 -10 -59 -15 -83 -5 -23 -12 -59 -15
-80 -3 -20 -7 -44 -9 -52 -3 -8 -7 -33 -10 -55 -4 -22 -9 -51 -11 -65 -3 -14
-7 -34 -9 -45 -2 -11 -6 -29 -8 -40 -3 -11 -8 -42 -11 -68 -4 -27 -10 -59 -12
-70 -3 -12 -7 -35 -10 -52 -2 -16 -7 -41 -10 -55 -3 -14 -8 -36 -10 -50 -3
-14 -9 -50 -15 -80 -6 -30 -12 -64 -13 -75 -2 -11 -13 -72 -25 -135 -32 -176
-38 -205 -47 -265 -3 -22 -7 -42 -9 -45 -2 -3 -6 -26 -10 -50 -3 -25 -8 -52
-10 -60 -2 -8 -7 -31 -10 -50 -5 -31 -16 -87 -29 -155 -3 -11 -15 -51 -27 -90
-13 -38 -23 -72 -24 -75 -24 -81 -111 -225 -178 -293 -40 -41 -129 -79 -196
-83 -31 -2 -58 -4 -61 -5 -11 -3 -56 -1 -80 4 -68 14 -89 20 -135 40 -27 12
-56 28 -63 34 -23 22 -33 14 -28 -19 2 -18 5 -33 6 -33 1 0 4 -15 6 -33 11
-75 94 -248 161 -333 44 -56 152 -158 203 -190 82 -53 125 -71 254 -107 30 -8
245 -7 284 1 213 47 418 188 552 382 19 28 38 51 43 53 4 2 7 10 7 17 0 8 7
20 15 29 36 35 174 342 191 423 2 12 9 35 15 50 6 16 12 35 14 43 2 8 11 47
20 85 20 82 22 95 31 150 8 49 10 60 29 160 9 44 18 96 21 115 2 19 7 42 9 50
3 8 7 32 11 54 3 21 8 48 10 60 2 11 7 36 10 55 7 41 12 68 19 101 3 14 8 39
10 55 4 25 33 180 49 265 3 14 7 42 10 62 3 21 10 57 15 80 5 24 12 59 15 78
3 19 8 47 11 63 3 15 7 39 10 55 7 39 24 133 29 158 6 31 18 97 20 114 2 8 6
29 9 45 4 17 9 46 12 65 13 80 16 96 20 110 5 18 16 76 20 110 2 14 6 36 9 50
6 27 22 116 30 165 2 17 6 37 9 45 3 8 8 33 11 55 9 63 17 105 32 175 8 36 16
82 19 103 2 21 13 86 24 145 11 59 23 121 26 137 2 17 7 41 10 55 3 14 12 63
21 110 9 47 18 94 20 105 2 10 6 35 9 55 6 38 9 56 25 135 5 28 12 66 15 85 3
19 12 69 20 110 8 41 17 92 21 114 3 21 8 48 10 60 4 17 20 101 48 256 2 14 5
28 5 33 1 4 226 7 500 7 560 0 503 -8 516 75 3 22 12 67 20 100 7 33 16 80 20
105 4 24 8 47 10 50 2 3 6 21 9 40 3 19 8 46 11 60 3 14 7 36 10 50 3 14 7 36
10 50 3 14 7 36 10 50 2 14 9 48 15 75 5 28 12 61 14 75 3 14 8 40 12 58 l7
32 -502 0 -502 0 5 63 c4 34 9 76 12 92 4 17 8 41 9 55 2 14 4 25 5 25 2 0 7
23 15 75 4 24 9 48 12 52 2 5 7 21 9 36 6 34 48 177 75 257 56 162 151 294
276 383 18 12 37 22 43 22 5 0 10 4 10 9 0 11 99 55 181 79 158 46 399 -4 545
-115 35 -26 40 -28 42 -10 1 20 45 132 55 138 5 3 8 10 8 15 -1 12 26 86 57
154 13 30 25 60 27 65 1 6 6 19 10 30 53 131 105 267 105 274 0 10 -187 103
-274 136 -72 27 -266 80 -336 91 -85 13 -234 10 -325 -8z"/>
<path d="M1245 8845 c-64 -11 -93 -21 -177 -58 -16 -6 -28 -16 -28 -20 0 -5
-4 -6 -8 -3 -14 9 -149 -112 -198 -176 -33 -43 -91 -168 -100 -213 -17 -91
-20 -117 -18 -170 2 -92 11 -139 42 -218 28 -72 90 -177 104 -177 5 0 8 -6 8
-14 0 -8 4 -16 9 -18 5 -1 29 -21 53 -43 55 -50 67 -58 153 -99 95 -46 182
-64 285 -59 98 4 110 6 166 22 135 37 268 133 342 246 15 22 29 42 33 45 4 4
17 29 24 50 1 3 9 22 19 43 44 99 54 274 22 396 -44 172 -171 327 -335 410
-32 17 -127 49 -171 58 -46 9 -164 8 -225 -2z"/>
<path d="M7307 8854 c-2 -2 -24 -7 -48 -10 -147 -20 -320 -134 -412 -272 -97
-148 -129 -289 -101 -457 16 -94 19 -104 45 -161 106 -229 325 -375 569 -377
52 -1 111 2 130 6 19 4 45 9 56 11 40 8 129 49 183 85 138 90 239 236 277 402
11 48 13 192 3 247 -45 246 -230 444 -475 508 -53 14 -218 26 -227 18z"/>
<path d="M9231 8678 c-6 -29 -12 -64 -15 -78 -7 -42 -27 -153 -32 -180 -3 -14
-7 -34 -9 -45 -2 -11 -6 -33 -9 -50 -2 -16 -9 -55 -15 -85 -6 -30 -13 -71 -16
-90 -3 -19 -9 -55 -15 -80 -5 -25 -19 -99 -31 -165 -11 -66 -23 -129 -25 -140
-2 -10 -6 -35 -9 -55 -3 -20 -8 -47 -11 -60 -3 -14 -9 -50 -14 -80 -6 -30 -12
-66 -15 -80 -3 -14 -7 -38 -10 -55 -6 -35 -14 -80 -21 -115 -6 -30 -43 -234
-50 -270 -2 -14 -7 -41 -10 -60 -10 -54 -15 -83 -19 -110 -1 -14 -4 -25 -5
-25 -2 0 -7 -25 -13 -72 -3 -21 -8 -45 -11 -53 -3 -8 -7 -33 -10 -55 -2 -22
-7 -47 -10 -55 -3 -8 -7 -33 -10 -55 -3 -22 -11 -74 -20 -115 -8 -41 -17 -91
-20 -110 -3 -19 -8 -45 -10 -56 -2 -12 -7 -39 -10 -60 -4 -22 -8 -46 -11 -54
-3 -13 -10 -53 -20 -115 -2 -11 -6 -36 -10 -55 -4 -19 -9 -44 -11 -55 -1 -11
-5 -29 -7 -40 -3 -11 -8 -40 -12 -65 -4 -25 -9 -54 -11 -65 -20 -107 -27 -143
-30 -160 -2 -11 -6 -36 -9 -55 -3 -19 -8 -45 -10 -57 -1 -11 -6 -29 -9 -40 -3
-10 -8 -34 -11 -53 -2 -19 -11 -73 -20 -120 -15 -87 -17 -94 -35 -190 -5 -30
-13 -73 -16 -95 -3 -22 -9 -56 -14 -75 -5 -19 -11 -51 -14 -70 -10 -67 -18
-113 -22 -134 -3 -11 -7 -30 -8 -41 -2 -11 -9 -49 -16 -85 -6 -36 -14 -76 -16
-90 -3 -14 -9 -47 -14 -75 -5 -27 -12 -67 -16 -89 -3 -21 -8 -48 -10 -60 -11
-47 -25 -123 -29 -156 -2 -19 -7 -46 -10 -60 -7 -33 -14 -68 -21 -105 -2 -16
-7 -41 -9 -55 -3 -14 -7 -36 -10 -50 -36 -165 -36 -361 0 -540 10 -51 13 -65
15 -67 2 -2 3 -6 4 -10 8 -35 20 -68 57 -153 92 -215 263 -351 494 -393 140
-26 363 2 498 61 23 10 61 27 85 37 23 10 42 22 42 27 0 4 5 8 11 8 12 0 112
67 149 100 14 12 36 32 50 44 14 11 48 48 75 81 87 103 88 93 -12 93 -99 -1
-186 19 -281 63 -67 30 -142 100 -160 146 -11 29 -23 64 -24 73 -1 3 -7 24
-14 47 -19 61 -11 307 11 383 3 8 7 33 10 55 3 22 7 51 10 65 3 14 8 41 11 60
4 19 8 44 11 55 2 11 6 36 9 55 2 19 6 42 9 50 2 8 7 33 10 55 4 22 8 47 10
55 6 20 17 80 20 105 1 11 5 38 10 60 12 64 15 78 21 115 8 46 12 65 14 65 1
0 3 11 5 25 2 14 8 52 14 85 6 33 13 76 16 95 3 19 8 42 10 50 3 14 14 71 19
110 2 8 6 29 9 45 4 17 9 46 12 65 3 19 8 42 10 50 2 8 6 31 9 50 3 19 8 46
11 60 5 27 16 94 20 127 2 11 6 29 9 40 3 10 8 33 11 51 6 39 13 80 19 107 2
11 7 40 11 65 4 25 9 54 12 65 11 53 15 73 18 105 2 19 4 35 5 35 2 0 6 21 34
175 14 80 28 154 30 165 5 24 33 178 41 220 3 17 10 57 16 90 15 90 17 100 19
100 1 0 3 16 6 35 2 19 8 55 14 80 9 42 32 170 45 250 3 19 14 80 25 135 21
111 27 142 35 199 4 21 9 48 11 60 3 11 9 46 14 76 6 30 12 66 15 80 5 27 23
123 31 167 3 16 11 64 19 108 8 44 17 91 19 105 3 14 5 25 6 25 1 0 3 11 5 25
3 23 19 113 29 166 2 12 7 37 10 55 7 44 34 188 40 216 2 11 8 43 12 70 5 26
9 50 9 53 1 3 5 25 9 50 5 25 10 54 13 65 2 11 6 32 8 48 l4 27 -499 0 -499 0
-10 -52z"/>
<path d="M237 7073 c-6 -22 -18 -73 -22 -93 -1 -8 -6 -33 -10 -55 -4 -22 -9
-49 -10 -60 -11 -64 -26 -143 -31 -165 -3 -14 -7 -38 -9 -55 -3 -16 -7 -41
-10 -55 -3 -14 -14 -77 -26 -140 -11 -63 -23 -118 -25 -121 -2 -4 -2 -13 1
-21 4 -10 59 -13 267 -15 143 -2 263 -4 265 -6 1 -2 -2 -29 -7 -60 -6 -31 -13
-69 -15 -84 -2 -15 -9 -53 -15 -83 -6 -30 -13 -68 -16 -85 -2 -16 -7 -37 -9
-45 -2 -8 -7 -35 -10 -60 -4 -25 -15 -88 -25 -140 -10 -52 -21 -111 -24 -130
-3 -19 -8 -46 -11 -60 -3 -14 -8 -38 -10 -55 -3 -16 -13 -66 -21 -110 -8 -44
-17 -94 -19 -111 -3 -18 -16 -90 -29 -160 -14 -71 -28 -145 -31 -164 -13 -78
-17 -100 -40 -225 -14 -71 -26 -139 -28 -150 -5 -24 -17 -90 -23 -125 -3 -14
-11 -61 -19 -105 -8 -44 -17 -96 -21 -115 -7 -39 -11 -62 -14 -70 -1 -3 -2 -8
-1 -13 1 -4 -3 -27 -9 -52 -6 -25 -13 -62 -16 -83 -3 -20 -14 -80 -24 -132
-10 -52 -21 -115 -25 -140 -3 -25 -8 -52 -10 -60 -2 -8 -7 -31 -10 -50 -3 -19
-8 -42 -10 -50 -2 -8 -7 -33 -10 -55 -3 -23 -8 -52 -11 -65 -3 -14 -7 -36 -9
-50 -2 -14 -6 -38 -10 -55 -12 -61 -47 -251 -50 -270 -1 -11 -5 -31 -9 -45 -3
-14 -8 -41 -10 -60 -3 -19 -5 -35 -6 -35 -3 0 -9 -40 -12 -74 l-3 -34 497 -1
c326 -1 498 2 499 9 0 6 2 17 4 25 1 8 8 42 14 75 6 33 13 71 16 85 7 32 14
71 20 113 3 17 8 43 10 57 11 55 15 76 20 103 3 15 7 39 10 55 3 15 7 38 10
52 2 13 7 42 11 64 3 22 7 43 9 46 3 5 15 69 20 110 5 39 22 125 25 125 1 0 3
11 5 25 4 36 16 103 20 120 2 8 7 31 10 50 3 19 7 46 10 60 3 14 7 39 10 55 3
17 7 41 10 55 6 28 12 65 20 113 3 17 8 39 10 47 2 8 6 31 9 50 7 41 11 66 32
175 24 128 35 188 40 220 2 17 14 80 25 140 12 61 23 121 26 135 2 14 15 86
29 160 28 150 36 196 40 225 1 11 3 20 4 20 1 0 3 11 5 25 2 14 6 36 9 50 4
14 9 40 12 59 3 18 8 43 10 55 3 11 7 35 9 51 3 17 9 53 15 80 6 28 13 68 16
90 7 50 12 80 14 80 2 0 5 19 16 85 4 25 8 50 10 55 2 10 8 42 19 103 3 15 7
38 10 52 3 14 8 41 11 60 3 19 14 78 24 130 10 52 21 113 25 135 3 23 8 52 10
65 3 14 7 36 10 50 2 14 9 50 15 80 11 53 20 109 24 140 1 9 6 21 10 28 4 7 6
16 3 18 -2 3 0 24 5 47 5 23 11 56 14 72 2 17 6 40 8 53 5 21 -9 29 -39 22 -5
-1 -26 -2 -45 -1 -19 0 -80 0 -135 0 -55 0 -113 1 -130 2 -39 2 -71 2 -115 0
-19 -1 -46 0 -60 2 -14 1 -37 0 -53 -4 -15 -4 -27 -4 -27 0 0 4 -17 6 -37 5
-76 -4 -98 -5 -123 -1 -14 1 -37 0 -52 -4 -16 -4 -28 -4 -28 0 0 4 -17 6 -37
5 -21 -1 -51 -3 -68 -4 -16 -1 -39 0 -50 3 -11 2 -34 1 -52 -4 -18 -4 -35 -3
-38 1 -2 4 -22 4 -43 0 -21 -4 -48 -3 -60 1 -13 5 -22 4 -22 -2 0 -6 -6 -6
-17 -1 -10 5 -27 7 -38 5 -11 -2 -31 -4 -45 -3 -14 1 -31 2 -37 1 -79 -3 -164
-2 -172 3 -5 4 -12 -2 -14 -11z"/>
<path d="M6285 7081 c-16 -3 -31 -11 -32 -17 -8 -45 -12 -62 -17 -84 -3 -14
-8 -41 -11 -60 -2 -19 -6 -46 -9 -60 -4 -14 -9 -45 -12 -70 -3 -25 -9 -49 -12
-54 -3 -6 -6 -19 -8 -30 -2 -30 -14 -99 -29 -176 -3 -14 -8 -41 -11 -60 -3
-19 -12 -63 -19 -98 -9 -46 -10 -64 -1 -69 6 -4 76 -8 156 -9 80 -1 196 -3
258 -4 l114 -2 -6 -41 c-3 -23 -8 -53 -11 -67 -5 -24 -7 -37 -22 -120 -3 -19
-8 -44 -10 -55 -3 -11 -6 -31 -8 -45 -2 -14 -4 -25 -5 -25 -1 0 -3 -9 -5 -20
-1 -11 -5 -35 -9 -52 -3 -18 -8 -45 -11 -60 -3 -16 -7 -37 -9 -48 -2 -11 -7
-40 -11 -65 -4 -25 -9 -54 -12 -65 -2 -11 -6 -29 -7 -40 -6 -32 -16 -88 -21
-115 -13 -65 -16 -78 -21 -119 -3 -25 -7 -48 -9 -51 -2 -4 -9 -35 -14 -71 -6
-35 -13 -75 -16 -89 -3 -14 -7 -38 -10 -55 -3 -16 -8 -41 -10 -55 -3 -14 -8
-36 -10 -50 -3 -14 -7 -38 -10 -55 -2 -16 -6 -40 -9 -51 -2 -12 -7 -39 -10
-60 -4 -22 -8 -46 -11 -54 -2 -8 -7 -31 -9 -50 -5 -34 -11 -68 -21 -120 -3
-14 -8 -38 -11 -55 -2 -16 -7 -37 -9 -45 -3 -8 -7 -33 -10 -55 -4 -36 -14 -91
-30 -165 -2 -13 -8 -42 -11 -65 -4 -22 -8 -49 -10 -60 -1 -11 -5 -30 -8 -41
-2 -12 -7 -37 -10 -55 -3 -19 -8 -45 -11 -59 -6 -27 -13 -69 -21 -115 -3 -16
-7 -37 -9 -45 -3 -8 -7 -34 -10 -57 -3 -24 -12 -73 -20 -111 -7 -37 -17 -90
-21 -118 -3 -27 -8 -52 -10 -55 -2 -3 -6 -21 -9 -40 -3 -19 -10 -56 -15 -84
-5 -27 -12 -66 -15 -85 -14 -83 -16 -99 -30 -167 -8 -40 -17 -87 -20 -105 -2
-18 -7 -44 -9 -58 -3 -13 -8 -42 -12 -65 -3 -22 -6 -44 -7 -49 -2 -11 980 -13
990 -2 5 4 39 175 67 336 2 14 16 88 30 165 14 77 28 154 31 170 3 17 12 64
20 105 7 41 16 91 19 110 3 19 7 44 10 55 2 11 7 40 12 65 4 25 8 47 9 50 2 5
15 86 18 110 2 8 6 21 11 28 4 7 6 15 3 18 -2 3 4 44 14 92 9 47 15 90 13 94
-3 5 -1 8 3 8 5 0 9 8 9 18 1 19 10 83 19 122 6 27 12 62 20 113 3 17 8 39 10
47 2 8 6 31 9 50 8 48 15 86 27 149 6 30 13 64 14 75 5 31 14 79 35 196 11 58
22 119 25 135 3 17 8 45 10 62 3 18 9 53 15 78 6 25 13 62 16 83 4 20 7 42 8
47 2 6 7 33 11 60 10 57 9 51 18 90 4 17 9 46 12 65 2 19 6 44 9 55 2 11 11
58 20 105 9 47 18 95 20 106 2 12 7 39 10 60 4 22 13 75 22 119 8 44 17 89 18
100 2 11 10 58 19 105 9 47 18 96 21 110 7 42 16 94 20 120 2 14 7 32 10 40 2
8 7 33 10 55 3 22 8 51 11 65 2 13 7 42 11 64 3 22 8 44 10 47 2 4 6 24 9 45
3 22 7 50 10 64 3 14 8 38 10 53 2 16 6 40 10 55 3 15 7 41 9 57 l4 30 -137 0
c-79 0 -139 -4 -143 -10 -5 -7 -8 -7 -8 0 0 11 -85 13 -96 3 -4 -4 -14 -4 -23
0 -19 9 -848 8 -857 -1 -3 -3 -16 -2 -28 2 -24 8 -127 7 -150 -2 -8 -3 -18 -2
-21 3 -4 6 -9 9 -13 9 -4 -1 -20 -4 -37 -8z"/>
</g>
</svg>
